<svg width="52" height="52" viewBox="0 0 52 52" fill="none" xmlns="http://www.w3.org/2000/svg"><g clip-path="url(#clip0)"><path d="M51.044 28.828c0-3.46-2.574-6.33-5.908-6.797V20.34C45.136 9.537 36.347.748 25.544.748 14.74.748 5.952 9.537 5.952 20.34v1.69a6.824 6.824 0 00-2.904 1.125V12.714H.044v16.114c0 3.461 2.574 6.33 5.908 6.798v1.27c0 5.632 4.582 10.214 10.214 10.214h4.12a4.663 4.663 0 004.407 3.154h1.351a4.662 4.662 0 004.657-4.656 4.662 4.662 0 00-4.657-4.656h-1.351a4.663 4.663 0 00-4.407 3.154h-4.12c-3.59 0-6.574-2.637-7.12-6.075a4.935 4.935 0 001.87.367 4.97 4.97 0 004.965-4.964v-9.397a4.97 4.97 0 00-4.965-4.965c-.687 0-1.341.14-1.937.394.456-8.742 7.711-15.714 16.565-15.714 8.854 0 16.11 6.972 16.565 15.714a4.937 4.937 0 00-1.938-.394 4.97 4.97 0 00-4.964 4.965v9.397a4.97 4.97 0 004.965 4.964 4.968 4.968 0 004.424-2.717c3.592-.217 6.448-3.207 6.448-6.852zM24.693 43.956h1.352c.91 0 1.652.741 1.652 1.652 0 .911-.741 1.652-1.652 1.652h-1.352a1.654 1.654 0 01-1.652-1.652c0-.911.74-1.652 1.652-1.652zM3.048 28.828a3.87 3.87 0 012.904-3.741v7.483a3.87 3.87 0 01-2.904-3.742zm7.868-6.752c1.081 0 1.96.88 1.96 1.96v9.398c0 1.08-.879 1.96-1.96 1.96-1.08 0-1.96-.88-1.96-1.96v-9.397c0-1.081.88-1.96 1.96-1.96zm29.256 13.318a1.963 1.963 0 01-1.961-1.96v-9.397c0-1.081.88-1.96 1.96-1.96 1.081 0 1.96.879 1.96 1.96v9.397c0 1.08-.879 1.96-1.96 1.96zm4.964-2.824v-7.483a3.87 3.87 0 012.904 3.742 3.87 3.87 0 01-2.904 3.741z" fill="#689038"/></g><defs><clipPath id="clip0"><path fill="#fff" d="M.044.006h51v51h-51z"/></clipPath></defs></svg>