<svg width="52" height="52" viewBox="0 0 52 52" fill="none" xmlns="http://www.w3.org/2000/svg"><g clip-path="url(#clip0)" fill="#689038"><path d="M38.562 30.327a6.436 6.436 0 00-6.429 6.429 6.436 6.436 0 006.429 6.428 6.435 6.435 0 006.428-6.428 6.436 6.436 0 00-6.428-6.429zm0 9.643a3.217 3.217 0 01-3.215-3.214 3.218 3.218 0 013.215-3.215 3.218 3.218 0 013.214 3.215 3.217 3.217 0 01-3.214 3.214zm-21.964-9.643a6.436 6.436 0 00-6.43 6.429 6.436 6.436 0 006.43 6.428 6.436 6.436 0 006.428-6.428 6.436 6.436 0 00-6.428-6.429zm0 9.643a3.218 3.218 0 01-3.215-3.214 3.218 3.218 0 013.215-3.215 3.218 3.218 0 013.214 3.215 3.217 3.217 0 01-3.215 3.214zM42.89 11.927a1.608 1.608 0 00-1.435-.886H32.99v3.215h7.473l4.377 8.704 2.872-1.444-4.821-9.59z"/><path d="M33.74 35.202H21.58v3.215h12.16v-3.215zm-21.964 0H6.205a1.607 1.607 0 100 3.215h5.571a1.607 1.607 0 100-3.215zm38.93-9.825l-3.16-4.071a1.605 1.605 0 00-1.27-.622H34.598V9.434c0-.887-.72-1.607-1.608-1.607H6.205a1.607 1.607 0 100 3.215h25.178v11.25c0 .887.72 1.607 1.607 1.607h12.5l2.34 3.015v8.288h-4.447a1.607 1.607 0 100 3.214h6.054c.888 0 1.607-.719 1.607-1.607V26.363c0-.357-.119-.704-.337-.986zM11.669 27.06H4.276a1.607 1.607 0 100 3.214h7.393a1.607 1.607 0 100-3.214zm3.696-6.322H1.651a1.607 1.607 0 100 3.214h13.714a1.607 1.607 0 100-3.214z"/><path d="M17.99 14.417H4.276a1.607 1.607 0 100 3.214H17.99a1.607 1.607 0 100-3.214z"/></g><defs><clipPath id="clip0"><path fill="#fff" d="M.044.006h51v51h-51z"/></clipPath></defs></svg>