<svg width="52" height="48" viewBox="0 0 52 48" fill="none" xmlns="http://www.w3.org/2000/svg"><path d="M50.827 1.983C50.75 1.338 50.2.83 49.507.757 37.681-.463 27.601 3.931 19.38 11.792c-2.354 2.25-4.394 4.632-6.137 6.93-2.948-.111-6.217 1.128-8.535 3.28L.482 25.93a1.315 1.315 0 00-.238 1.675c.338.544 1.027.809 1.681.647.98-.245 2.574-.53 4.105-.596.56-.024 1.025-.016 1.411.011-.933 1.666-1.647 3.062-1.884 3.412a1.315 1.315 0 00.208 1.72L8.21 35.07c-3.559 4.51-3.618 6.818-3.605 7.145.026.693.608 1.342 1.571 1.342.834 0 3.227-.328 7.583-3.333l2.572 2.39a1.582 1.582 0 001.865.186c.402-.24 1.817-.877 3.513-1.7.028 1.174-.143 2.898-.516 5.236-.212 1.326 1.524 2.124 2.535 1.185l4.227-3.926c2.18-2.025 3.443-5.031 3.35-7.852 2.606-1.692 5.318-3.688 7.85-5.994C47.54 22.113 52.123 12.82 50.827 1.983zm-2.859 1.429a25.801 25.801 0 01-.757 8.7c-1.841-.538-3.64-1.596-5.266-3.105-1.631-1.516-2.773-3.194-3.35-4.91 3.021-.679 6.146-.909 9.373-.685zM5.835 24.882l.986-.916a9.634 9.634 0 014.286-2.264 77.099 77.099 0 00-2.157 3.37c-.979-.201-2.067-.238-3.115-.19zm2.828 6.683c.323-.593.714-1.336 1.432-2.596l1.967 1.828a56.74 56.74 0 00-1.988 2.079l-1.411-1.31zm7.307-.53c1.09-1.012 2.133-1.197 3.43-1.223-.028 1.174-.231 2.177-1.316 3.185-4.64 4.31-7.82 6.233-9.721 7.092.938-1.8 3.015-4.79 7.607-9.055zm1.681 8.878l-1.541-1.431a60.662 60.662 0 002.232-1.853l2.094 1.945c-1.377.683-1.951.94-2.785 1.34zm8.19 1.719l-1.196 1.111c.097-1.346.063-2.327-.074-3.084a88.295 88.295 0 003.543-1.955c-.356 1.467-1.158 2.892-2.273 3.928zm-2.685-4.457l-2.68-2.489c1.983-2.026 1.91-3.979 1.91-6.26 0-.766-.67-1.387-1.495-1.387-2.294 0-4.502-.115-6.739 1.773l-2.558-2.377c6.986-11.379 15.06-18.583 24.135-21.55.718 2.16 2.116 4.24 4.103 6.085 1.977 1.837 4.206 3.132 6.52 3.802-3.212 8.381-10.966 15.878-23.196 22.403z" fill="#689038"/><path d="M37.85 13.056c-2.926-2.771-7.687-2.771-10.612 0-2.925 2.773-2.925 7.284 0 10.055 2.925 2.772 7.686 2.773 10.612 0 2.925-2.771 2.925-7.282 0-10.055zM35.727 21.1c-1.755 1.664-4.612 1.664-6.367 0a4.114 4.114 0 010-6.033c1.755-1.662 4.612-1.663 6.367 0a4.114 4.114 0 010 6.033z" fill="#689038"/></svg>