<svg width="40" height="40" viewBox="0 0 40 40" fill="none" xmlns="http://www.w3.org/2000/svg"><path d="M20 0C8.972 0 0 8.972 0 20s8.972 20 20 20 20-8.972 20-20S31.028 0 20 0zm0 38.333C9.89 38.333 1.667 30.11 1.667 20 1.667 9.89 9.89 1.667 20 1.667 30.11 1.667 38.333 9.89 38.333 20c0 10.11-8.224 18.333-18.333 18.333z" fill="#989898"/><path d="M28.089 11.91a.833.833 0 00-1.178 0L20 18.823l-6.911-6.911a.833.833 0 10-1.178 1.178L18.82 20l-6.91 6.91a.833.833 0 101.178 1.18L20 21.177l6.912 6.911a.83.83 0 001.178 0 .833.833 0 000-1.178L21.179 20l6.91-6.912a.833.833 0 000-1.178z" fill="#989898"/></svg>