<svg width="20" height="19" viewBox="0 0 20 19" fill="none" xmlns="http://www.w3.org/2000/svg"><g clip-path="url(#clip0)"><path d="M.052 7.288c.131-.384.49-.658.915-.694l5.773-.498L9.022 1.02c.169-.372.552-.612.978-.612.426 0 .81.24.977.613l2.283 5.075 5.774.498c.424.037.782.31.914.694a.977.977 0 01-.311 1.073l-4.364 3.635 1.287 5.385a.985.985 0 01-.413 1.042 1.099 1.099 0 01-1.168.049L10 15.644l-4.977 2.828a1.104 1.104 0 01-1.168-.049.985.985 0 01-.413-1.042l1.286-5.385L.364 8.362a.978.978 0 01-.312-1.074z" fill="#FFC107"/></g><defs><clipPath id="clip0"><path transform="matrix(-1 0 0 1 20 0)" fill="#fff" d="M0 0h20v19H0z"/></clipPath></defs></svg>